{
  "accessors": [
    {
      "bufferView": 2,
      "componentType": 5126,
      "count": 65532,
      "max": [
        6.248600959777832,
        5.4519829750061035,
        20.69947624206543
      ],
      "min": [
        -7.343695640563965,
        -3.6592319011688232,
        2.683521270751953
      ],
      "type": "VEC3"
    },
    {
      "bufferView": 2,
      "byteOffset": 786384,
      "componentType": 5126,
      "count": 65532,
      "max": [
        0.9998961091041565,
        0.9999986290931702,
        0.9999692440032959
      ],
      "min": [
        -0.9999906420707703,
        -0.9999982714653015,
        -0.9999720454216003
      ],
      "type": "VEC3"
    },
    {
      "bufferView": 1,
      "componentType": 5126,
      "count": 65532,
      "max": [
        0.9995110034942627,
        0.8757179975509644
      ],
      "min": [
        0.0004879999905824661,
        0.0004879999905824661
      ],
      "type": "VEC2"
    },
    {
      "bufferView": 0,
      "componentType": 5125,
      "count": 307821,
      "type": "SCALAR"
    },
    {
      "bufferView": 2,
      "byteOffset": 1572768,
      "componentType": 5126,
      "count": 65532,
      "max": [
        3.0690300464630127,
        1.9173681735992432,
        20.870540618896484
      ],
      "min": [
        -3.834561347961426,
        -9.181344032287598,
        8.36428451538086
      ],
      "type": "VEC3"
    },
    {
      "bufferView": 2,
      "byteOffset": 2359152,
      "componentType": 5126,
      "count": 65532,
      "max": [
        0.9999845027923584,
        0.9999589920043945,
        0.9999628663063049
      ],
      "min": [
        -0.9997127056121826,
        -0.9999982714653015,
        -0.9999659061431885
      ],
      "type": "VEC3"
    },
    {
      "bufferView": 1,
      "byteOffset": 524256,
      "componentType": 5126,
      "count": 65532,
      "max": [
        0.9995120167732239,
        0.8959959745407104
      ],
      "min": [
        0.0004879999905824661,
        0.0004879999905824661
      ],
      "type": "VEC2"
    },
    {
      "bufferView": 0,
      "byteOffset": 1231284,
      "componentType": 5125,
      "count": 303798,
      "type": "SCALAR"
    },
    {
      "bufferView": 2,
      "byteOffset": 3145536,
      "componentType": 5126,
      "count": 65532,
      "max": [
        6.112499713897705,
        5.341925621032715,
        18.93673324584961
      ],
      "min": [
        -6.176898956298828,
        -8.548851013183594,
        2.792011260986328
      ],
      "type": "VEC3"
    },
    {
      "bufferView": 2,
      "byteOffset": 3931920,
      "componentType": 5126,
      "count": 65532,
      "max": [
        0.9999710917472839,
        0.9999901652336121,
        0.9994031190872192
      ],
      "min": [
        -0.9998295903205872,
        -0.9999908208847046,
        -0.9979687929153442
      ],
      "type": "VEC3"
    },
    {
      "bufferView": 1,
      "byteOffset": 1048512,
      "componentType": 5126,
      "count": 65532,
      "max": [
        0.9995120167732239,
        0.8959959745407104
      ],
      "min": [
        0.0004879999905824661,
        0.0004879999905824661
      ],
      "type": "VEC2"
    },
    {
      "bufferView": 0,
      "byteOffset": 2446476,
      "componentType": 5125,
      "count": 290856,
      "type": "SCALAR"
    },
    {
      "bufferView": 2,
      "byteOffset": 4718304,
      "componentType": 5126,
      "count": 65532,
      "max": [
        5.793882369995117,
        5.432260036468506,
        20.38436508178711
      ],
      "min": [
        -7.343695640563965,
        -2.370325803756714,
        2.7047996520996094
      ],
      "type": "VEC3"
    },
    {
      "bufferView": 2,
      "byteOffset": 5504688,
      "componentType": 5126,
      "count": 65532,
      "max": [
        0.9998647570610046,
        0.9999899864196777,
        0.9999176859855652
      ],
      "min": [
        -0.999993085861206,
        -0.9999961853027344,
        -0.9998888969421387
      ],
      "type": "VEC3"
    },
    {
      "bufferView": 1,
      "byteOffset": 1572768,
      "componentType": 5126,
      "count": 65532,
      "max": [
        0.9995120167732239,
        0.8862299919128418
      ],
      "min": [
        0.0004879999905824661,
        0.0004879999905824661
      ],
      "type": "VEC2"
    },
    {
      "bufferView": 0,
      "byteOffset": 3609900,
      "componentType": 5125,
      "count": 281988,
      "type": "SCALAR"
    },
    {
      "bufferView": 2,
      "byteOffset": 6291072,
      "componentType": 5126,
      "count": 65532,
      "max": [
        2.9029195308685303,
        4.12540340423584,
        20.483787536621094
      ],
      "min": [
        -5.06630277633667,
        -2.651766538619995,
        7.231719970703125
      ],
      "type": "VEC3"
    },
    {
      "bufferView": 2,
      "byteOffset": 7077456,
      "componentType": 5126,
      "count": 65532,
      "max": [
        0.9999105334281921,
        0.9999863505363464,
        0.999779462814331
      ],
      "min": [
        -0.999993085861206,
        -0.9999948740005493,
        -0.9992465972900391
      ],
      "type": "VEC3"
    },
    {
      "bufferView": 1,
      "byteOffset": 2097024,
      "componentType": 5126,
      "count": 65532,
      "max": [
        0.9995120167732239,
        0.9057620167732239
      ],
      "min": [
        0.0004879999905824661,
        0.0004879999905824661
      ],
      "type": "VEC2"
    },
    {
      "bufferView": 0,
      "byteOffset": 4737852,
      "componentType": 5125,
      "count": 262242,
      "type": "SCALAR"
    },
    {
      "bufferView": 2,
      "byteOffset": 7863840,
      "componentType": 5126,
      "count": 65532,
      "max": [
        4.496206283569336,
        4.141427516937256,
        20.86710548400879
      ],
      "min": [
        -3.621858596801758,
        -8.01070499420166,
        7.204948425292969
      ],
      "type": "VEC3"
    },
    {
      "bufferView": 2,
      "byteOffset": 8650224,
      "componentType": 5126,
      "count": 65532,
      "max": [
        0.999992847442627,
        0.9999881982803345,
        0.9999977946281433
      ],
      "min": [
        -0.9996421933174133,
        -0.9999949932098389,
        -0.9992102980613708
      ],
      "type": "VEC3"
    },
    {
      "bufferView": 1,
      "byteOffset": 2621280,
      "componentType": 5126,
      "count": 65532,
      "max": [
        0.9995120167732239,
        0.8979489803314209
      ],
      "min": [
        0.0004879999905824661,
        0.0004879999905824661
      ],
      "type": "VEC2"
    },
    {
      "bufferView": 0,
      "byteOffset": 5786820,
      "componentType": 5125,
      "count": 266889,
      "type": "SCALAR"
    },
    {
      "bufferView": 2,
      "byteOffset": 9436608,
      "componentType": 5126,
      "count": 41162,
      "max": [
        3.0602505207061768,
        0.9513048529624939,
        20.655725479125977
      ],
      "min": [
        -3.23370623588562,
        -7.44527006149292,
        8.298885345458984
      ],
      "type": "VEC3"
    },
    {
      "bufferView": 2,
      "byteOffset": 9930552,
      "componentType": 5126,
      "count": 41162,
      "max": [
        0.9999217987060547,
        0.9994577765464783,
        0.9999977946281433
      ],
      "min": [
        -0.9997449517250061,
        -0.9999873042106628,
        -0.9999244213104248
      ],
      "type": "VEC3"
    },
    {
      "bufferView": 1,
      "byteOffset": 3145536,
      "componentType": 5126,
      "count": 41162,
      "max": [
        0.9995120167732239,
        0.894802987575531
      ],
      "min": [
        0.0004879999905824661,
        0.0004879999905824661
      ],
      "type": "VEC2"
    },
    {
      "bufferView": 0,
      "byteOffset": 6854376,
      "componentType": 5125,
      "count": 156228,
      "type": "SCALAR"
    }
  ],
  "asset": {
    "extras": {
      "author": "DeLeon (https://sketchfab.com/dele0n)",
      "license": "CC-BY-4.0 (http://creativecommons.org/licenses/by/4.0/)",
      "source": "https://sketchfab.com/3d-models/texas-chainsaw-leatherface-d006b83875be45918f79b0f815a07418",
      "title": "Texas Chainsaw - Leatherface"
    },
    "generator": "Sketchfab-12.97.0",
    "version": "2.0"
  },
  "bufferViews": [
    {
      "buffer": 0,
      "byteLength": 7479288,
      "name": "floatBufferViews",
      "target": 34963
    },
    {
      "buffer": 0,
      "byteLength": 3474832,
      "byteOffset": 7479288,
      "byteStride": 8,
      "name": "floatBufferViews",
      "target": 34962
    },
    {
      "buffer": 0,
      "byteLength": 10424496,
      "byteOffset": 10954120,
      "byteStride": 12,
      "name": "floatBufferViews",
      "target": 34962
    }
  ],
  "buffers": [
    {
      "byteLength": 21378616,
      "uri": "scene.bin"
    }
  ],
  "images": [
    {
      "uri": "textures/model_Material_u1_v1_baseColor.jpeg"
    }
  ],
  "materials": [
    {
      "doubleSided": true,
      "name": "model_Material_u1_v1",
      "pbrMetallicRoughness": {
        "baseColorTexture": {
          "index": 0
        },
        "metallicFactor": 0.0,
        "roughnessFactor": 0.8706063148678475
      }
    }
  ],
  "meshes": [
    {
      "name": "Object_0",
      "primitives": [
        {
          "attributes": {
            "NORMAL": 1,
            "POSITION": 0,
            "TEXCOORD_0": 2
          },
          "indices": 3,
          "material": 0,
          "mode": 4
        }
      ]
    },
    {
      "name": "Object_1",
      "primitives": [
        {
          "attributes": {
            "NORMAL": 5,
            "POSITION": 4,
            "TEXCOORD_0": 6
          },
          "indices": 7,
          "material": 0,
          "mode": 4
        }
      ]
    },
    {
      "name": "Object_2",
      "primitives": [
        {
          "attributes": {
            "NORMAL": 9,
            "POSITION": 8,
            "TEXCOORD_0": 10
          },
          "indices": 11,
          "material": 0,
          "mode": 4
        }
      ]
    },
    {
      "name": "Object_3",
      "primitives": [
        {
          "attributes": {
            "NORMAL": 13,
            "POSITION": 12,
            "TEXCOORD_0": 14
          },
          "indices": 15,
          "material": 0,
          "mode": 4
        }
      ]
    },
    {
      "name": "Object_4",
      "primitives": [
        {
          "attributes": {
            "NORMAL": 17,
            "POSITION": 16,
            "TEXCOORD_0": 18
          },
          "indices": 19,
          "material": 0,
          "mode": 4
        }
      ]
    },
    {
      "name": "Object_5",
      "primitives": [
        {
          "attributes": {
            "NORMAL": 21,
            "POSITION": 20,
            "TEXCOORD_0": 22
          },
          "indices": 23,
          "material": 0,
          "mode": 4
        }
      ]
    },
    {
      "name": "Object_6",
      "primitives": [
        {
          "attributes": {
            "NORMAL": 25,
            "POSITION": 24,
            "TEXCOORD_0": 26
          },
          "indices": 27,
          "material": 0,
          "mode": 4
        }
      ]
    }
  ],
  "nodes": [
    {
      "children": [
        1
      ],
      "matrix": [
        0.09344450384378433,
        0.0,
        0.0,
        0.0,
        0.0,
        2.0748847938408662e-17,
        -0.09344450384378433,
        0.0,
        0.0,
        0.09344450384378433,
        2.0748847938408662e-17,
        0.0,
        0.0,
        0.0,
        0.0,
        1.0
      ],
      "name": "Sketchfab_model"
    },
    {
      "children": [
        2,
        3,
        4,
        5,
        6,
        7,
        8
      ],
      "name": "model.obj.cleaner.materialmerger.gles"
    },
    {
      "mesh": 0,
      "name": "Object_2"
    },
    {
      "mesh": 1,
      "name": "Object_3"
    },
    {
      "mesh": 2,
      "name": "Object_4"
    },
    {
      "mesh": 3,
      "name": "Object_5"
    },
    {
      "mesh": 4,
      "name": "Object_6"
    },
    {
      "mesh": 5,
      "name": "Object_7"
    },
    {
      "mesh": 6,
      "name": "Object_8"
    }
  ],
  "samplers": [
    {
      "magFilter": 9729,
      "minFilter": 9987,
      "wrapS": 10497,
      "wrapT": 10497
    }
  ],
  "scene": 0,
  "scenes": [
    {
      "name": "Sketchfab_Scene",
      "nodes": [
        0
      ]
    }
  ],
  "textures": [
    {
      "sampler": 0,
      "source": 0
    }
  ]
}
